<svg xmlns:xlink="http://www.w3.org/1999/xlink" xmlns="http://www.w3.org/2000/svg" viewBox="0 0 369.65517241379314 57.74125938479448" preserveAspectRatio="xMidYMid meet" class="css-1j4x1ud" id="acdhhfcd" width="369.65517241379314"  height="57.74125938479448" ><defs id="SvgjsDefs1001"><linearGradient id="SvgjsLinearGradient1011"><stop id="SvgjsStop1012" stop-color="#905e26" offset="0"></stop><stop id="SvgjsStop1013" stop-color="#f5ec9b" offset="0.5"></stop><stop id="SvgjsStop1014" stop-color="#905e26" offset="1"></stop></linearGradient><linearGradient id="SvgjsLinearGradient1015"><stop id="SvgjsStop1016" stop-color="#905e26" offset="0"></stop><stop id="SvgjsStop1017" stop-color="#f5ec9b" offset="0.5"></stop><stop id="SvgjsStop1018" stop-color="#905e26" offset="1"></stop></linearGradient></defs><g id="SvgjsG1007" featurekey="e7LhAk-0" transform="matrix(0.9010315608561291,0,0,0.9010315608561291,-14.869315060182617,-21.007910506058405)" fill="#FFFFFF"><g xmlns="http://www.w3.org/2000/svg" fill="#FFFFFF"><path d="M83.0033951,29.8232002c-1.7485046-1.0869007-11.6396027-6.5078011-34.706501-6.5078011   c-20.948801,0-30.8047009,4.4444008-31.2138939,4.6333008c-0.3809071,0.1763-0.6113071,0.5713005-0.5771065,0.9892998   c1.6844997,20.5498009,17.0321999,46.6924019,30.3099976,58.2162971c0.1865005,0.1621017,0.4204025,0.244606,0.6553001,0.244606   c0.1899033,0,0.3799019-0.0537033,0.5469017-0.1631012c7.5946999-4.9624023,14.5102005-12.7451019,22.4232979-25.2343025   C77.3388901,51.1152,83.4755936,35.4141006,83.4755936,30.6723995   C83.4755936,30.3267002,83.2968903,30.0053997,83.0033951,29.8232002z M75.5031891,28.7730999   c-4.1679993-0.4578991-9.521698-0.9167004-14.2448959-0.9167004h-0.7158012   c-9.3144913-0.0091991-17.3432999-0.0077991-30.1791992,6.1240997c-0.2441998,0.1166992-0.4312,0.3276024-0.5170994,0.5844002   c-0.0858994,0.2574005-0.0639992,0.5381012,0.0604992,0.7784004c7.8887024,15.2030983,17.0699005,25.6917,19.3586998,28.198101   c-1.0326004,1.6354027-2.137394,3.2695961-3.3239975,4.8745995c-11.6485023-8.7486992-22.5248013-28.6885986-27.1077003-39.0128021   c2.8405991-1.0548992,12.4786987-4.087801,29.4631996-4.087801C61.5057907,25.3153992,70.2168961,27.093399,75.5031891,28.7730999z    M50.358593,61.7695007c-2.1784019-2.4263992-8.0834999-9.3376999-14.1547012-19.3204002   c3.5774002-0.797699,13.3383026-2.7476997,24.1203995-2.9892998C59.2980003,42.7854996,56.1381912,52.1222992,50.358593,61.7695007   z M19.4895935,35.4665985c5.641407,11.321701,15.5709991,27.7423019,26.0840988,35.1555023   c0.1748009,0.1230011,0.3759995,0.1826019,0.5751991,0.1826019c0.302803,0,0.6011086-0.1367035,0.7974014-0.3950043   c9.6833-12.740799,14.4558983-27.5527992,15.4756012-30.9759979c0.0248985,0,0.0496979-0.0005989,0.0746994-0.0005989   c3.3984032,0,5.5464058,0.2641983,6.6308022,0.4477997c-0.4887009,2.9872971-2.4057007,12.8373985-7.6723022,22.4252968   c-5.3190002,9.6828995-12.0741997,19.5909042-14.1576996,22.5951996   C35.9306946,74.5770035,23.2844944,53.7619019,19.4895935,35.4665985z M68.7519989,60.9311981   c-6.0351067,9.5246048-11.4516068,16.2329025-17.0195045,21.0036011   c3.0636978-4.5844955,7.6379967-11.6794968,11.4755058-18.6657982c6.457489-11.7558022,7.9794922-23.5561028,8.0410004-24.0527   c0.0610886-0.4888-0.2436066-0.9491997-0.7177048-1.0844994c-0.0997009-0.028801-2.5092926-0.6987-8.0347023-0.6987   c-12.5354004,0-24.1823997,2.4735985-27.3712006,3.2098999c-0.9934998-1.690403-1.9856987-3.4556999-2.9608002-5.299202   c11.8862-5.4941998,19.528801-5.5098,28.3768997-5.4874001h0.7168007c7.7294006,0,17.2089005,1.2535,20.1493988,1.6707001   C80.7537918,36.4818001,75.2291946,50.7074013,68.7519989,60.9311981z" fill="#FFFFFF"></path></g></g><g id="SvgjsG1008" featurekey="Qg0WB5-0" transform="matrix(3.251629618992832,0,0,3.251629618992832,78.50424870072564,-12.989512819583961)" fill="#FFFFFF"><path d="M0.52 9.36 c0 -2.24 1.1 -3.52 3.24 -3.52 s3.24 1.28 3.24 3.52 l0 0.44 l-2.08 0 l0 -0.58 c0 -1 -0.4 -1.38 -1.1 -1.38 s-1.1 0.38 -1.1 1.38 c0 1.02 0.44 1.78 1.88 3.04 c1.84 1.62 2.42 2.78 2.42 4.38 c0 2.24 -1.12 3.52 -3.28 3.52 s-3.28 -1.28 -3.28 -3.52 l0 -0.86 l2.08 0 l0 1 c0 1 0.44 1.36 1.14 1.36 s1.14 -0.36 1.14 -1.36 c0 -1.02 -0.44 -1.78 -1.88 -3.04 c-1.84 -1.62 -2.42 -2.78 -2.42 -4.38 z M10.3 9.22 l0 7.56 c0 1 0.44 1.38 1.14 1.38 s1.14 -0.38 1.14 -1.38 l0 -7.56 c0 -1 -0.44 -1.38 -1.14 -1.38 s-1.14 0.38 -1.14 1.38 z M8.1 16.64 l0 -7.28 c0 -2.24 1.18 -3.52 3.34 -3.52 s3.34 1.28 3.34 3.52 l0 7.28 c0 2.24 -1.18 3.52 -3.34 3.52 s-3.34 -1.28 -3.34 -3.52 z M16.1 6 l2.2 0 l0 10.8 c0 1 0.44 1.36 1.14 1.36 s1.14 -0.36 1.14 -1.36 l0 -10.8 l2.08 0 l0 10.66 c0 2.24 -1.12 3.52 -3.28 3.52 s-3.28 -1.28 -3.28 -3.52 l0 -10.66 z M23.52 8 l0 -2 l6.8 0 l0 2 l-2.3 0 l0 12 l-2.2 0 l0 -12 l-2.3 0 z M33.480000000000004 14 l0 6 l-2.2 0 l0 -14 l2.2 0 l0 6 l2.5 0 l0 -6 l2.24 0 l0 14 l-2.24 0 l0 -6 l-2.5 0 z M43.06 6 c2.2 0 3.28 1.22 3.28 3.46 l0 1.82 c0 2.24 -1.08 3.46 -3.28 3.46 l-1.04 0 l0 5.26 l-2.2 0 l0 -14 l3.24 0 z M43.06 8 l-1.04 0 l0 4.74 l1.04 0 c0.7 0 1.08 -0.32 1.08 -1.32 l0 -2.1 c0 -1 -0.38 -1.32 -1.08 -1.32 z M54.2 20 l-2.24 0 c-0.12 -0.36 -0.2 -0.58 -0.2 -1.72 l0 -2.2 c0 -1.3 -0.44 -1.78 -1.44 -1.78 l-0.76 0 l0 5.7 l-2.2 0 l0 -14 l3.32 0 c2.28 0 3.26 1.06 3.26 3.22 l0 1.1 c0 1.44 -0.46 2.36 -1.44 2.82 l0 0.04 c1.1 0.46 1.46 1.5 1.46 2.96 l0 2.16 c0 0.68 0.02 1.18 0.24 1.7 z M50.620000000000005 8 l-1.06 0 l0 4.3 l0.86 0 c0.82 0 1.32 -0.36 1.32 -1.48 l0 -1.38 c0 -1 -0.34 -1.44 -1.12 -1.44 z M55.4 20 l0 -14 l2.2 0 l0 14 l-2.2 0 z M63.9 20 l-2.7 -10.14 l-0.04 0 l0 10.14 l-1.98 0 l0 -14 l2.76 0 l2.22 8.38 l0.04 0 l0 -8.38 l1.96 0 l0 14 l-2.26 0 z M67.1 8 l0 -2 l6.8 0 l0 2 l-2.3 0 l0 12 l-2.2 0 l0 -12 l-2.3 0 z M79.10000000000001 10.22 l0 -0.78 c0 -1.26 -0.44 -1.6 -1.14 -1.6 s-1.14 0.38 -1.14 1.38 l0 0.9 l-2.08 0 l0 -0.76 c0 -2.24 1.12 -3.52 3.28 -3.52 s3.28 1.28 3.28 3.52 l0 0.36 c0 1.5 -0.48 2.42 -1.54 2.86 l0 0.04 c1.1 0.48 1.54 1.5 1.54 2.92 l0 1.1 c0 2.24 -1.12 3.52 -3.28 3.52 s-3.28 -1.28 -3.28 -3.52 l0 -1.16 l2.08 0 l0 1.3 c0 1 0.44 1.38 1.14 1.38 s1.14 -0.34 1.14 -1.58 l0 -1.1 c0 -1.3 -0.44 -1.78 -1.44 -1.78 l-0.74 0 l0 -2 l0.86 0 c0.82 0 1.32 -0.36 1.32 -1.48 z M82.78 20 l0 -14 l3.48 0 c2.2 0 3.28 1.22 3.28 3.46 l0 7.08 c0 2.24 -1.08 3.46 -3.28 3.46 l-3.48 0 z M86.22 8 l-1.24 0 l0 10 l1.24 0 c0.7 0 1.12 -0.36 1.12 -1.36 l0 -7.28 c0 -1 -0.42 -1.36 -1.12 -1.36 z" fill="#FFFFFF"></path></g></svg>